<svg width="25" height="25" viewBox="0 0 25 25" fill="none" xmlns="http://www.w3.org/2000/svg">
<path fill-rule="evenodd" clip-rule="evenodd" d="M24.955 12.165C24.955 18.8835 19.5085 24.33 12.79 24.33C6.07146 24.33 0.625 18.8835 0.625 12.165C0.625 5.44646 6.07146 0 12.79 0C19.5085 0 24.955 5.44646 24.955 12.165ZM13.2259 8.98077C12.0427 9.47291 9.67791 10.4915 6.13157 12.0366C5.5557 12.2656 5.25403 12.4896 5.22657 12.7087C5.18016 13.0789 5.64377 13.2247 6.2751 13.4232C6.36097 13.4502 6.44995 13.4782 6.54117 13.5079C7.16229 13.7098 7.99781 13.946 8.43217 13.9553C8.82617 13.9639 9.26592 13.8014 9.75141 13.468C13.0649 11.2314 14.7753 10.1008 14.8827 10.0765C14.9584 10.0593 15.0634 10.0377 15.1346 10.1009C15.2057 10.1641 15.1987 10.2838 15.1912 10.316C15.1452 10.5117 13.3254 12.2037 12.3836 13.0792C12.09 13.3522 11.8817 13.5458 11.8392 13.59C11.7438 13.689 11.6466 13.7827 11.5532 13.8728C10.9762 14.4291 10.5434 14.8462 11.5771 15.5274C12.0739 15.8548 12.4714 16.1255 12.868 16.3956C13.3011 16.6905 13.7331 16.9847 14.292 17.351C14.4344 17.4444 14.5704 17.5413 14.7028 17.6358C15.2068 17.9951 15.6597 18.3179 16.2191 18.2664C16.5442 18.2365 16.8799 17.9308 17.0504 17.0192C17.4535 14.8648 18.2456 10.1968 18.4287 8.27322C18.4447 8.10469 18.4245 7.889 18.4083 7.79432C18.3921 7.69964 18.3583 7.56474 18.2352 7.46488C18.0895 7.34661 17.8644 7.32167 17.7638 7.32345C17.3063 7.33151 16.6043 7.5756 13.2259 8.98077Z" fill="white"/>
</svg>
