<svg width="10" height="13" viewBox="0 0 10 13" fill="none" xmlns="http://www.w3.org/2000/svg">
<path fill-rule="evenodd" clip-rule="evenodd" d="M6 2V2.14494C7.44574 2.57521 8.5 3.91449 8.5 5.5V9H9V10H1V9H1.5V5.5C1.5 3.91449 2.55426 2.57521 4 2.14494V2C4 1.44772 4.44772 1 5 1C5.55228 1 6 1.44772 6 2ZM2.5 9H7.5V5.5C7.5 4.11929 6.38071 3 5 3C3.61929 3 2.5 4.11929 2.5 5.5V9ZM6 11V10.5H4V11C4 11.5523 4.44772 12 5 12C5.55228 12 6 11.5523 6 11Z" fill="#EFF2F4" stroke="#EFF2F4" stroke-width="0.5"/>
</svg>
