<svg width="530" height="445" viewBox="0 0 530 445" fill="none" xmlns="http://www.w3.org/2000/svg">
<path d="M476.1 445H370.856C312.35 445 263.078 443.74 259.467 393.943C257.031 443.74 207.759 445 149.253 445H53.9C24.1319 445 0 420.868 0 391.1L0 53.9C0 24.1318 24.1319 -3.05176e-05 53.9 -3.05176e-05H149.253C207.759 -3.05176e-05 257.031 0.258728 259.467 50.0562C263.078 0.258728 312.35 -3.05176e-05 370.856 -3.05176e-05H476.1C505.868 -3.05176e-05 530 24.1318 530 53.9V391.1C530 420.868 505.868 445 476.1 445Z" fill="#F3F3F3"/>
</svg>
