<svg width="530" height="445" viewBox="0 0 530 445" fill="none" xmlns="http://www.w3.org/2000/svg">
<path d="M476.082 445H371.081H370.163C311.287 445.001 263.032 445.002 260.576 395.518C258.121 445.002 209.866 445.001 150.989 445H150.072H53.9029C24.1348 445 0.00289817 420.868 0.00289817 391.1V318.994C0.00289817 269.209 -1.40491 228.281 57.8355 226.208C-1.40491 224.136 0.00289817 183.208 0.00289817 133.423V53.9C0.00289817 24.1318 24.1348 0 53.9029 0H150.072C209.364 0 258.108 0.764571 260.576 50.5061C263.045 0.764571 311.789 0 371.081 0H476.082C505.851 0 529.982 24.1318 529.982 53.9V133.423C529.982 183.208 532.614 224.136 473.374 226.208C532.614 228.281 529.982 269.209 529.982 318.994V391.1C529.982 420.868 505.851 445 476.082 445Z" fill="#00D860"/>
</svg>
