<svg width="18" height="22" viewBox="0 0 18 22" fill="none" xmlns="http://www.w3.org/2000/svg">
<path fill-rule="evenodd" clip-rule="evenodd" d="M3 21.7573C1.34315 21.7573 0 20.4142 0 18.7573V8.75732C0 8.72343 0.00168633 8.68993 0.00498009 8.6569H0C0 8.08093 0.228801 7.52855 0.636071 7.12128L6.87868 0.87868C8.05025 -0.292893 9.94974 -0.292893 11.1213 0.87868L17.3639 7.1213C17.7712 7.52856 18 8.08093 18 8.6569H17.995C17.9983 8.68993 18 8.72343 18 8.75732V18.7573C18 20.4142 16.6569 21.7573 15 21.7573H3ZM9.7071 2.29289L16 8.58579V18.7573C16 19.3096 15.5523 19.7573 15 19.7573H12V14.7573C12 13.1005 10.6569 11.7573 9 11.7573C7.34315 11.7573 6 13.1005 6 14.7573V19.7573H3C2.44772 19.7573 2 19.3096 2 18.7573V8.58586L8.29289 2.29289C8.68341 1.90237 9.31658 1.90237 9.7071 2.29289Z" fill="#EFF2F4"/>
</svg>
