<svg width="22" height="22" viewBox="0 0 22 22" fill="none" xmlns="http://www.w3.org/2000/svg">
<path d="M16.7865 14.9866L16.6633 15.1593L16.8134 15.3093L20.4482 18.9441C20.9595 19.4555 20.9595 20.2845 20.4482 20.7958C19.9368 21.3071 19.1078 21.3071 18.5965 20.7958L14.9617 17.161L14.8117 17.011L14.6389 17.1341C11.0814 19.6694 6.11041 19.341 2.91885 16.1494C-0.638665 12.5919 -0.638665 6.82402 2.91885 3.26651C6.47637 -0.291008 12.2442 -0.291009 15.8018 3.26651C18.9933 6.45807 19.3218 11.4291 16.7865 14.9866ZM13.9501 14.2977C16.4849 11.7629 16.4849 7.65305 13.9501 5.11819C11.4152 2.58333 7.30539 2.58333 4.77053 5.11819C2.23567 7.65305 2.23567 11.7629 4.77053 14.2977C7.30539 16.8326 11.4152 16.8326 13.9501 14.2977Z" fill="white" stroke="white" stroke-width="0.501429"/>
</svg>
