<svg width="31" height="25" viewBox="0 0 31 25" fill="none" xmlns="http://www.w3.org/2000/svg">
<path d="M9.73802 24.33C21.4231 24.33 27.8144 14.9687 27.8144 6.85065C27.8144 6.58476 27.8144 6.32007 27.7958 6.05657C29.0392 5.18693 30.1125 4.11015 30.9655 2.87666C29.806 3.37371 28.576 3.69952 27.3165 3.8432C28.6428 3.07554 29.6354 1.86796 30.1096 0.445308C28.8625 1.16095 27.4981 1.66526 26.0754 1.93646C25.1175 0.951561 23.8507 0.299389 22.4708 0.0808612C21.091 -0.137667 19.6752 0.0896322 18.4425 0.727584C17.2097 1.36554 16.2288 2.37858 15.6514 3.60994C15.0741 4.8413 14.9325 6.22233 15.2486 7.53933C12.7228 7.41681 10.2518 6.78207 7.99613 5.6763C5.74042 4.57054 3.75039 3.01846 2.1552 1.12082C1.34278 2.47322 1.09395 4.0742 1.45938 5.59778C1.8248 7.12135 2.77701 8.45298 4.12212 9.32152C3.11104 9.29287 2.12197 9.02912 1.23862 8.55259V8.63044C1.23902 10.0488 1.74678 11.4233 2.67576 12.521C3.60475 13.6186 4.89778 14.3717 6.33553 14.6525C5.40022 14.8992 4.41887 14.9353 3.46689 14.7579C3.87302 15.9785 4.66343 17.0458 5.72763 17.8107C6.79182 18.5757 8.0766 18.9999 9.40235 19.0242C8.08513 20.0253 6.57669 20.7656 4.96334 21.2025C3.34999 21.6394 1.66338 21.7645 0 21.5705C2.90538 23.3733 6.28589 24.3296 9.73802 24.3252" fill="white"/>
</svg>
